<?xml version="1.0" encoding="UTF-8"?>
<svg class="css-1j8o68f" viewBox="0 0 115 130" xmlns="http://www.w3.org/2000/svg">
  <path fill="white" d="M86.81,82.75H11.69a8,8,0,0,1-7.94-7.94V20.69a8,8,0,0,1,7.94-7.94H94.5v6.5H11.69a1.44,1.44,0,0,0-1.44,1.44V74.81a1.44,1.44,0,0,0,1.44,1.44H86.81a1.44,1.44,0,0,0,1.44-1.44V24.06h6.5V74.81A8,8,0,0,1,86.81,82.75Z" xmlns="http://www.w3.org/2000/svg"/>
  <path fill="white" d="M38.75,66.74V28.87L70.91,47.45Zm6.5-26.61V55.26l12.84-7.71Z" xmlns="http://www.w3.org/2000/svg"/>
</svg>
